# Blender3D v249 OBJ File: fish.blend
# www.blender3d.org
mtllib fish.mtl
v 0.000000 0.000417 0.530000
v -0.002483 2.000144 0.530000
v -0.002483 2.000144 -0.530000
v 0.000000 0.000417 -0.530000
v 0.000006 1.287417 0.530000
v 0.000006 1.287417 -0.530000
v 0.002935 1.821977 0.530000
v 0.000093 1.643749 0.530000
v 0.005506 1.465581 0.530000
v 0.002935 1.821977 -0.530000
v 0.000093 1.643749 -0.530000
v 0.005506 1.465581 -0.530000
vt 0.480597 1.000018
vt 0.000000 1.000018
vt 0.000000 0.604188
vt 0.480597 0.604188
vt 0.746849 1.000018
vt 0.680286 1.000018
vt 0.680286 0.604188
vt 0.746849 0.604188
vt 0.613723 1.000018
vt 0.613723 0.604188
vt 0.547160 1.000018
vt 0.547160 0.604188
vn 1.000000 -0.000005 0.000000
vn 0.999538 0.030396 0.000000
vn 0.999873 -0.015949 0.000000
vn 0.999539 0.030370 0.000000
vn 0.999524 -0.030853 0.000000
usemtl Material_fish.png
s off
f 5/1/1 1/2/1 4/3/1 6/4/1
f 2/5/2 7/6/2 10/7/2 3/8/2
f 7/6/3 8/9/3 11/10/3 10/7/3
f 8/9/4 9/11/4 12/12/4 11/10/4
f 9/11/5 5/1/5 6/4/5 12/12/5
