# Blender v2.79 (sub 0) OBJ File: 'pin.blend'
# www.blender.org
mtllib pin.mtl
o Cone.001_Cone.002
v -0.983331 -0.035034 2.249648
v 0.256377 0.000000 4.027318
v -0.819115 0.548601 2.189303
v -0.342026 0.922689 2.128627
v 0.265706 0.944341 2.090797
v 0.771948 0.605287 2.090263
v 0.983331 0.035034 2.127228
v 0.819115 -0.548601 2.187573
v 0.342026 -0.922689 2.248248
v -0.265706 -0.944341 2.286078
v -0.771948 -0.605287 2.286613
v -0.425700 0.000000 2.581134
v -0.344398 0.250220 2.581134
v -0.131549 0.404865 2.581134
v 0.131549 0.404865 2.581134
v 0.344398 0.250220 2.581134
v 0.425700 -0.000000 2.581134
v 0.344398 -0.250220 2.581134
v 0.131549 -0.404865 2.581134
v -0.131549 -0.404865 2.581134
v -0.344399 -0.250220 2.581134
v -1.139111 -0.029570 1.509143
v -0.940706 0.645014 1.459162
v -0.382983 1.073225 1.409084
v 0.321026 1.091500 1.378040
v 0.902414 0.692860 1.377886
v 1.139111 0.029570 1.408681
v 0.940706 -0.645014 1.458663
v 0.382983 -1.073225 1.508740
v -0.321026 -1.091500 1.539785
v -0.902414 -0.692859 1.539939
v -0.580302 -0.000000 1.602210
v -0.469474 0.341093 1.602210
v -0.179323 0.551900 1.602210
v 0.179323 0.551900 1.602210
v 0.469474 0.341093 1.602210
v 0.580302 -0.000000 1.602210
v 0.469474 -0.341093 1.602210
v 0.179323 -0.551900 1.602210
v -0.179323 -0.551900 1.602210
v -0.469474 -0.341093 1.602210
v -1.247013 0.028318 0.715766
v -0.993451 0.755453 0.759959
v -0.360424 1.194030 0.803535
v 0.410272 1.176529 0.829849
v 1.024259 0.709633 0.828850
v 1.247013 -0.028318 0.800920
v 0.993451 -0.755453 0.756727
v 0.360424 -1.194031 0.713150
v -0.410272 -1.176529 0.686837
v -1.024259 -0.709633 0.687835
v -0.794752 -0.000000 0.860673
v -0.642968 0.467143 0.860673
v -0.245592 0.755854 0.860673
v 0.245592 0.755854 0.860673
v 0.642968 0.467143 0.860673
v 0.794752 -0.000000 0.860673
v 0.642968 -0.467144 0.860673
v 0.245592 -0.755854 0.860673
v -0.245592 -0.755854 0.860673
v -0.642968 -0.467143 0.860673
v -0.190676 -0.000000 1.290377
v -0.154260 0.112076 1.290377
v -0.058922 0.181343 1.290377
v 0.058922 0.181343 1.290377
v 0.154260 0.112076 1.290377
v 0.190676 -0.000000 1.290377
v 0.154260 -0.112076 1.290377
v 0.058922 -0.181343 1.290377
v -0.058922 -0.181343 1.290377
v -0.154260 -0.112076 1.290377
v -0.346306 -0.000000 0.014439
v -0.280167 0.203553 0.014439
v -0.107014 0.329356 0.014439
v 0.107014 0.329356 0.014439
v 0.280167 0.203553 0.014439
v 0.346306 -0.000000 0.014439
v 0.280167 -0.203554 0.014439
v 0.107014 -0.329357 0.014439
v -0.107014 -0.329357 0.014439
v -0.280167 -0.203553 0.014439
v 0.228306 0.553590 3.020167
v 0.254029 -0.432714 3.020167
v -0.337709 -0.327332 3.020167
v 0.518591 0.348770 3.020167
v -0.463028 -0.018698 3.020167
v 0.474946 -0.254344 3.020167
v 0.563097 0.017405 3.020167
v -0.045209 -0.472286 3.020167
v -0.089032 0.472596 3.020167
v -0.329435 0.279232 3.020167
vt 0.566178 0.892482
vt 0.419916 0.982468
vt 0.389917 0.939777
vt 0.473488 0.842600
vt 0.359317 0.909724
vt 0.417625 0.817753
vt 0.327871 0.885819
vt 0.369233 0.799850
vt 0.291888 0.870739
vt 0.323527 0.786803
vt 0.256715 0.862954
vt 0.279225 0.777392
vt 0.234531 0.771368
vt 0.225970 0.857036
vt 0.193670 0.856069
vt 0.189025 0.767615
vt 0.157311 0.859127
vt 0.140021 0.766608
vt 0.115244 0.870090
vt 0.083246 0.766382
vt 0.070508 0.896589
vt 0.000168 0.762083
vt 0.238789 0.670105
vt 0.291347 0.667603
vt 0.053707 0.667603
vt 0.095722 0.680597
vt 0.141374 0.680210
vt 0.188814 0.675209
vt 0.403118 0.676292
vt 0.462961 0.688602
vt 0.346127 0.669332
vt 0.515361 0.723678
vt 0.571469 0.744659
vt 0.282765 0.589706
vt 0.244089 0.586621
vt 0.235321 0.435377
vt 0.288724 0.429196
vt 0.468253 0.449564
vt 0.403505 0.434269
vt 0.416588 0.339644
vt 0.491325 0.348909
vt 0.404061 0.618165
vt 0.362301 0.607819
vt 0.135301 0.602626
vt 0.105129 0.622243
vt 0.000168 0.486116
vt 0.078555 0.473273
vt 0.206402 0.587450
vt 0.183916 0.445751
vt 0.322192 0.596694
vt 0.344589 0.428448
vt 0.482950 0.667268
vt 0.445784 0.636528
vt 0.545327 0.475383
vt 0.665723 0.517779
vt 0.170065 0.592443
vt 0.133262 0.458873
vt 0.073732 0.312298
vt 0.000168 0.286120
vt 0.031568 0.046601
vt 0.135556 0.123340
vt 0.020144 0.411859
vt 0.068760 0.412108
vt 0.166639 0.379531
vt 0.221142 0.361967
vt 0.346253 0.339644
vt 0.570574 0.364177
vt 0.657313 0.375434
vt 0.116649 0.397662
vt 0.280975 0.347813
vt 0.297886 0.190973
vt 0.249913 0.179835
vt 0.264702 0.144515
vt 0.305249 0.157300
vt 0.290902 0.339308
vt 0.220994 0.339308
vt 0.471642 0.289477
vt 0.417323 0.311986
vt 0.390382 0.189484
vt 0.436741 0.177218
vt 0.654367 0.251845
vt 0.589200 0.265711
vt 0.536805 0.120338
vt 0.616655 0.047967
vt 0.148574 0.329653
vt 0.198022 0.159100
vt 0.356890 0.329645
vt 0.344409 0.194066
vt 0.528745 0.279481
vt 0.484156 0.155041
vt 0.425078 0.144288
vt 0.385325 0.156982
vt 0.365348 0.057352
vt 0.381082 0.050303
vt 0.505274 0.084671
vt 0.541397 0.019494
vt 0.223034 0.120693
vt 0.345412 0.161238
vt 0.464855 0.121420
vt 0.178678 0.079264
vt 0.131049 0.000168
vt 0.777979 0.844925
vt 0.763835 0.839972
vt 0.812044 0.683782
vt 0.837733 0.692777
vt 0.405325 0.025016
vt 0.410742 0.006920
vt 0.299128 0.045298
vt 0.314484 0.054963
vt 0.348493 0.060591
vt 0.394813 0.039509
vt 0.286945 0.029841
vt 0.331277 0.059884
vt 0.281866 0.006390
vt 0.734370 0.016166
vt 0.742780 0.042051
vt 0.734370 0.067937
vt 0.712350 0.083935
vt 0.685133 0.083935
vt 0.663113 0.067937
vt 0.654702 0.042051
vt 0.663113 0.016166
vt 0.685133 0.000168
vt 0.712350 0.000168
vt 0.674901 0.833303
vt 0.660177 0.836091
vt 0.623781 0.676733
vt 0.650524 0.671670
vt 0.719744 0.831624
vt 0.704768 0.831064
vt 0.704768 0.667603
vt 0.731967 0.668621
vt 0.749360 0.836091
vt 0.785756 0.676734
vt 0.645702 0.839972
vt 0.597492 0.683782
vt 0.689793 0.831624
vt 0.677570 0.668621
vt 0.734636 0.833303
vt 0.759013 0.671670
vt 0.631558 0.844925
vt 0.571804 0.692777
vt 0.228066 0.999832
vn -0.7995 -0.0300 -0.5999
vn -0.8174 0.0142 0.5759
vn -0.6668 0.5159 0.5378
vn -0.6586 0.4153 -0.6275
vn -0.3457 0.8005 0.4896
vn -0.3980 0.6306 -0.6662
vn 0.1961 0.8773 0.4380
vn 0.0729 0.6763 -0.7330
vn 0.7643 0.5220 0.3786
vn 0.5633 0.3579 -0.7447
vn 0.9347 -0.0324 0.3538
vn 0.7091 -0.0828 -0.7002
vn 0.5907 -0.4655 -0.6590
vn 0.7684 -0.5032 0.3954
vn 0.3511 -0.8192 0.4534
vn 0.2483 -0.7534 -0.6088
vn -0.1656 -0.8398 0.5170
vn -0.1978 -0.7934 -0.5756
vn -0.6249 -0.5384 0.5653
vn -0.6147 -0.5418 -0.5732
vn 0.4012 -0.4031 -0.8225
vn 0.5187 -0.0791 -0.8513
vn -0.5979 -0.0824 -0.7973
vn -0.4844 -0.3971 -0.7795
vn -0.2111 -0.5908 -0.7787
vn 0.1238 -0.5936 -0.7951
vn 0.1157 0.4761 -0.8717
vn -0.2432 0.4606 -0.8536
vn 0.4147 0.2640 -0.8708
vn -0.5102 0.2422 -0.8252
vn 0.6940 -0.5063 -0.5118
vn 0.8337 0.0005 -0.5522
vn -0.2889 0.7816 -0.5528
vn 0.2307 0.7835 -0.5770
vn 0.1964 0.6932 -0.6934
vn -0.3220 0.6652 -0.6736
vn -0.8816 -0.0333 -0.4708
vn -0.7100 -0.5461 -0.4445
vn 0.2761 -0.8381 -0.4704
vn 0.6550 0.4882 -0.5767
vn -0.7158 0.4743 -0.5124
vn -0.2640 -0.8560 -0.4444
vn -0.6326 -0.4872 -0.6020
vn -0.7816 -0.0797 -0.6186
vn -0.8621 0.0276 -0.5059
vn -0.6947 -0.4823 -0.5337
vn 0.1433 -0.7753 -0.6151
vn 0.5270 -0.5592 -0.6399
vn 0.6258 0.3620 -0.6909
vn -0.6779 0.3526 -0.6451
vn -0.2876 -0.7459 -0.6007
vn 0.7308 -0.1393 -0.6682
vn 0.7189 -0.5183 -0.4631
vn 0.2677 -0.8188 -0.5079
vn -0.1085 0.4066 -0.9071
vn -0.2857 0.2430 -0.9270
vn 0.7523 0.5335 -0.3865
vn 0.3041 0.8711 -0.3855
vn -0.6995 0.5466 -0.4604
vn -0.2676 -0.8018 -0.5344
vn 0.9091 -0.0018 -0.4165
vn -0.2547 0.8738 -0.4141
vn -0.0826 -0.2824 -0.9557
vn -0.2435 -0.1651 -0.9557
vn 0.2845 0.2067 -0.9361
vn 0.1087 0.3345 -0.9361
vn 0.3189 -0.1973 -0.9270
vn 0.4202 0.0216 -0.9072
vn 0.1465 0.4228 -0.8943
vn -0.3252 0.0240 -0.9453
vn 0.1225 -0.3022 -0.9453
vn 0.3574 0.2693 -0.8943
vn -0.3517 0.0000 -0.9361
vn -0.2845 0.2067 -0.9361
vn -0.6486 0.4712 -0.5977
vn -0.8017 0.0000 -0.5977
vn -0.1087 -0.3345 -0.9361
vn 0.1087 -0.3345 -0.9361
vn 0.3517 0.0000 -0.9361
vn -0.1087 0.3345 -0.9361
vn -0.2845 -0.2067 -0.9361
vn 0.2845 -0.2067 -0.9361
vn -0.2477 0.7625 -0.5977
vn 0.2477 0.7625 -0.5977
vn 0.6486 0.4712 -0.5977
vn 0.8017 0.0000 -0.5977
vn 0.6486 -0.4712 -0.5977
vn 0.2477 -0.7625 -0.5977
vn -0.2477 -0.7625 -0.5977
vn -0.6486 -0.4712 -0.5977
vn 0.1465 -0.0247 0.9889
usemtl Material.001
s 1
f 1/1/1 86/2/2 91/3/3 3/4/4
f 3/4/4 91/3/3 90/5/5 4/6/6
f 4/6/6 90/5/5 82/7/7 5/8/8
f 5/8/8 82/7/7 85/9/9 6/10/10
f 6/10/10 85/9/9 88/11/11 7/12/12
f 8/13/13 7/12/12 88/11/11 87/14/14
f 8/13/13 87/14/14 83/15/15 9/16/16
f 9/16/16 83/15/15 89/17/17 10/18/18
f 10/18/18 89/17/17 84/19/19 11/20/20
f 11/20/20 84/19/19 86/21/2 1/22/1
f 7/12/12 8/13/13 18/23/21 17/24/22
f 11/20/20 1/22/1 12/25/23 21/26/24
f 9/16/16 10/18/18 20/27/25 19/28/26
f 4/6/6 5/8/8 15/29/27 14/30/28
f 6/10/10 7/12/12 17/24/22 16/31/29
f 1/1/1 3/4/4 13/32/30 12/33/23
f 8/13/13 9/16/16 19/28/26 18/23/21
f 3/4/4 4/6/6 14/30/28 13/32/30
f 10/18/18 11/20/20 21/26/24 20/27/25
f 5/8/8 6/10/10 16/31/29 15/29/27
f 17/34/22 18/35/21 28/36/31 27/37/32
f 24/38/33 25/39/34 35/40/35 34/41/36
f 14/42/28 15/43/27 25/39/34 24/38/33
f 21/44/24 12/45/23 22/46/37 31/47/38
f 18/35/21 19/48/26 29/49/39 28/36/31
f 15/43/27 16/50/29 26/51/40 25/39/34
f 12/52/23 13/53/30 23/54/41 22/55/37
f 19/48/26 20/56/25 30/57/42 29/49/39
f 16/50/29 17/34/22 27/37/32 26/51/40
f 13/53/30 14/42/28 24/38/33 23/54/41
f 20/56/25 21/44/24 31/47/38 30/57/42
f 41/58/43 32/59/44 42/60/45 51/61/46
f 31/47/38 22/46/37 32/62/44 41/63/43
f 28/36/31 29/49/39 39/64/47 38/65/48
f 25/39/34 26/51/40 36/66/49 35/40/35
f 22/55/37 23/54/41 33/67/50 32/68/44
f 29/49/39 30/57/42 40/69/51 39/64/47
f 26/51/40 27/37/32 37/70/52 36/66/49
f 23/54/41 24/38/33 34/41/36 33/67/50
f 30/57/42 31/47/38 41/63/43 40/69/51
f 27/37/32 28/36/31 38/65/48 37/70/52
f 48/71/53 49/72/54 59/73/55 58/74/56
f 38/75/48 39/76/47 49/72/54 48/71/53
f 35/77/35 36/78/49 46/79/57 45/80/58
f 32/81/44 33/82/50 43/83/59 42/84/45
f 39/76/47 40/85/51 50/86/60 49/72/54
f 36/78/49 37/87/52 47/88/61 46/79/57
f 33/82/50 34/89/36 44/90/62 43/83/59
f 40/85/51 41/58/43 51/61/46 50/86/60
f 37/87/52 38/75/48 48/71/53 47/88/61
f 34/89/36 35/77/35 45/80/58 44/90/62
f 55/91/63 56/92/64 66/93/65 65/94/66
f 45/80/58 46/79/57 56/92/64 55/91/63
f 42/84/45 43/83/59 53/95/67 52/96/68
f 49/72/54 50/86/60 60/97/69 59/73/55
f 46/79/57 47/88/61 57/98/70 56/92/64
f 43/83/59 44/90/62 54/99/71 53/95/67
f 50/86/60 51/61/46 61/100/72 60/97/69
f 47/88/61 48/71/53 58/74/56 57/98/70
f 44/90/62 45/80/58 55/91/63 54/99/71
f 51/61/46 42/60/45 52/101/68 61/100/72
f 62/102/73 63/103/74 73/104/75 72/105/76
f 52/96/68 53/95/67 63/106/74 62/107/73
f 59/73/55 60/97/69 70/108/77 69/109/78
f 56/92/64 57/98/70 67/110/79 66/93/65
f 53/95/67 54/99/71 64/111/80 63/106/74
f 60/97/69 61/100/72 71/112/81 70/108/77
f 57/98/70 58/74/56 68/113/82 67/110/79
f 54/99/71 55/91/63 65/94/66 64/111/80
f 61/100/72 52/101/68 62/114/73 71/112/81
f 58/74/56 59/73/55 69/109/78 68/113/82
f 72/115/76 73/116/75 74/117/83 75/118/84 76/119/85 77/120/86 78/121/87 79/122/88 80/123/89 81/124/90
f 69/125/78 70/126/77 80/127/89 79/128/88
f 66/129/65 67/130/79 77/131/86 76/132/85
f 63/103/74 64/133/80 74/134/83 73/104/75
f 70/126/77 71/135/81 81/136/90 80/127/89
f 67/130/79 68/137/82 78/138/87 77/131/86
f 64/133/80 65/139/66 75/140/84 74/134/83
f 71/135/81 62/141/73 72/142/76 81/136/90
f 68/137/82 69/125/78 79/128/88 78/138/87
f 65/139/66 66/129/65 76/132/85 75/140/84
f 82/7/7 90/5/5 2/143/91
f 86/21/2 84/19/19 2/143/91
f 83/15/15 87/14/14 2/143/91
f 85/9/9 82/7/7 2/143/91
f 91/3/3 86/2/2 2/143/91
f 89/17/17 83/15/15 2/143/91
f 88/11/11 85/9/9 2/143/91
f 90/5/5 91/3/3 2/143/91
f 84/19/19 89/17/17 2/143/91
f 87/14/14 88/11/11 2/143/91
